<svg width="796" height="800" viewBox="0 0 796 800" fill="none" xmlns="http://www.w3.org/2000/svg">
<path d="M250.232 253.082L328.903 476.802L406.754 253.082H466.167L355.946 544H301.45L190.819 253.082H250.232Z" fill="url(#paint0_linear_101_45)"/>
<path d="M388.681 253.082L467.352 476.802L545.203 253.082H604.616L494.395 544H439.899L329.268 253.082H388.681Z" fill="url(#paint1_linear_101_45)"/>
<path d="M781.369 0.67289H14.6307C6.91866 0.67289 0.671997 6.92178 0.671997 14.6316V707.006C0.671997 714.713 6.91911 720.964 14.6307 720.964H111.427V785.368C111.427 793.076 117.678 799.327 125.386 799.327H234.564C242.276 799.327 248.523 793.076 248.523 785.368V720.964H547.477V785.368C547.477 793.076 553.724 799.327 561.436 799.327H670.613C678.321 799.327 684.572 793.076 684.572 785.368V720.964H781.369C789.076 720.964 795.328 714.713 795.328 707.006V14.6311C795.328 6.92178 789.077 0.67289 781.369 0.67289ZM220.605 771.409H139.345V722.553H220.605L220.605 771.409ZM656.655 771.409H575.395V722.553H656.655V771.409ZM93.624 88.7098H702.376V635.712H93.624V88.7098ZM65.7062 456.734H28.5893V265.297H65.7062V456.734ZM767.41 693.046H28.5893V484.649H65.7062V649.67C65.7062 657.378 71.9538 663.629 79.6653 663.629H716.335C724.043 663.629 730.293 657.378 730.293 649.67V74.7511C730.293 67.0413 724.043 60.7924 716.335 60.7924H79.6653C71.9538 60.7924 65.7062 67.0413 65.7062 74.7511V237.38H28.5893V28.5902H767.41V693.046Z" fill="#65CC8A"/>
<defs>
<linearGradient id="paint0_linear_101_45" x1="398" y1="0.67289" x2="398" y2="799.327" gradientUnits="userSpaceOnUse">
<stop stop-color="#65CC8A"/>
</linearGradient>
<linearGradient id="paint1_linear_101_45" x1="398" y1="0.67289" x2="398" y2="799.327" gradientUnits="userSpaceOnUse">
<stop stop-color="#65CC8A"/>
</linearGradient>
</defs>
</svg>

